HIERARCHY
ROOT hip
{
	OFFSET 0.000000 0.000000 0.000000
	CHANNELS 6 Xposition Yposition Zposition Zrotation Yrotation Xrotation 
	JOINT lhipjoint
	{
		OFFSET 0.000000 0.000000 0.000000
		CHANNELS 3 Zrotation Yrotation Xrotation
		JOINT lfemur
		{
			OFFSET 1.363060 -1.794630 0.839290
			CHANNELS 3 Zrotation Yrotation Xrotation
			JOINT ltibia
			{
				OFFSET 2.448110 -6.726130 0.000000
				CHANNELS 3 Zrotation Yrotation Xrotation
				JOINT lfoot
				{
					OFFSET 2.562200 -7.039590 0.000000
					CHANNELS 3 Zrotation Yrotation Xrotation
					JOINT ltoes
					{
						OFFSET 0.157640 -0.433110 2.322550
						CHANNELS 3 Zrotation Yrotation Xrotation
						End Site
						{
							OFFSET 0.000000 0.000000 0.000000
						}
					}
				}
			}
		}
	}
	JOINT rhipjoint
	{
		OFFSET 0.000000 0.000000 0.000000
		CHANNELS 3 Zrotation Yrotation Xrotation
		JOINT rfemur
		{
			OFFSET -1.305520 -1.794630 0.839290
			CHANNELS 3 Zrotation Yrotation Xrotation
			JOINT rtibia
			{
				OFFSET -2.542530 -6.985550 0.000000
				CHANNELS 3 Zrotation Yrotation Xrotation
				JOINT rfoot
				{
					OFFSET -2.568260 -7.056230 0.000000
					CHANNELS 3 Zrotation Yrotation Xrotation
					JOINT rtoes
					{
						OFFSET -0.164730 -0.452590 2.363150
						CHANNELS 3 Zrotation Yrotation Xrotation
						End Site
						{
							OFFSET 0.000000 0.000000 0.000000
						}
					}
				}
			}
		}
	}
	JOINT lowerback
	{
		OFFSET 0.000000 0.000000 0.000000
		CHANNELS 3 Zrotation Yrotation Xrotation
		JOINT upperback
		{
			OFFSET 0.028270 2.035590 -0.193380
			CHANNELS 3 Zrotation Yrotation Xrotation
			JOINT thorax
			{
				OFFSET 0.056720 2.048850 -0.042750
				CHANNELS 3 Zrotation Yrotation Xrotation
				JOINT lowerneck
				{
					OFFSET 0.000000 0.000000 0.000000
					CHANNELS 3 Zrotation Yrotation Xrotation
					JOINT upperneck
					{
						OFFSET -0.054170 1.746240 0.172020
						CHANNELS 3 Zrotation Yrotation Xrotation
						JOINT head
						{
							OFFSET 0.104070 1.761360 -0.123970
							CHANNELS 3 Zrotation Yrotation Xrotation
							End Site
							{
								OFFSET 0.000000 0.000000 0.000000
							}
						}
					}
				}
				JOINT lclavicle
				{
					OFFSET 0.000000 0.000000 0.000000
					CHANNELS 3 Zrotation Yrotation Xrotation
					JOINT lhumerus
					{
						OFFSET 3.362410 1.200890 -0.311210
						CHANNELS 3 Zrotation Yrotation Xrotation
						JOINT lradius
						{
							OFFSET 4.983000 -0.000000 -0.000000
							CHANNELS 3 Zrotation Yrotation Xrotation
							JOINT lwrist
							{
								OFFSET 3.483560 -0.000000 -0.000000
								CHANNELS 3 Zrotation Yrotation Xrotation
								JOINT lhand
								{
									OFFSET 0.000000 0.000000 0.000000
									CHANNELS 3 Zrotation Yrotation Xrotation
									JOINT lfingers
									{
										OFFSET 0.715260 -0.000000 -0.000000
										CHANNELS 3 Zrotation Yrotation Xrotation
										End Site
										{
											OFFSET 0.000000 0.000000 0.000000
										}
									}
								}
								JOINT lthumb
								{
									OFFSET 0.000000 0.000000 0.000000
									CHANNELS 3 Zrotation Yrotation Xrotation
									End Site
									{
										OFFSET 0.000000 0.000000 0.000000
									}
								}
							}
						}
					}
				}
				JOINT rclavicle
				{
					OFFSET 0.000000 0.000000 0.000000
					CHANNELS 3 Zrotation Yrotation Xrotation
					JOINT rhumerus
					{
						OFFSET -3.136600 1.374050 -0.404650
						CHANNELS 3 Zrotation Yrotation Xrotation
						JOINT rradius
						{
							OFFSET -5.241900 -0.000000 -0.000000
							CHANNELS 3 Zrotation Yrotation Xrotation
							JOINT rwrist
							{
								OFFSET -3.444170 -0.000000 -0.000000
								CHANNELS 3 Zrotation Yrotation Xrotation
								JOINT rhand
								{
									OFFSET 0.000000 0.000000 0.000000
									CHANNELS 3 Zrotation Yrotation Xrotation
									JOINT rfingers
									{
										OFFSET -0.622530 -0.000000 -0.000000
										CHANNELS 3 Zrotation Yrotation Xrotation
										End Site
										{
											OFFSET 0.000000 0.000000 0.000000
										}
									}
								}
								JOINT rthumb
								{
									OFFSET 0.000000 0.000000 0.000000
									CHANNELS 3 Zrotation Yrotation Xrotation
									End Site
									{
										OFFSET 0.000000 0.000000 0.000000
									}
								}
							}
						}
					}
				}
			}
		}
	}
}
MOTION
Frames: 9
Frame Time: 0.008333
-0.431408 16.542935 2.057431 -171.785392 -14.615943 155.007955 -5.183183 -4.407086 -3.232553 -8.391625 4.681670 16.363373 2.675790 14.096610 31.870381 -0.580636 -20.589842 -3.172534 0.793400 5.685700 15.875200 9.125645 -0.058624 2.122610 3.754849 2.855209 -65.116950 -5.895236 -7.726541 33.133499 -1.726811 19.925753 -14.855789 -1.146500 6.799100 -19.121700 -5.977779 7.625338 23.447522 -0.076929 3.753657 0.524338 -5.756991 -0.026115 15.048969 -8.363464 -5.068934 -8.984202 17.513690 -11.397306 18.453832 4.941400 -5.131800 4.727000 -7.439831 -4.579925 4.099893 -45.047761 -11.402393 23.084399 78.396708 -58.336496 -50.739327 -0.019812 1.221357 31.305861 61.532176 -10.639786 -22.370600 -7.125000 0.000000 0.000000 22.061500 5.948300 -21.344500 8.455562 2.648501 3.977070 75.812527 -20.886761 24.062632 -36.606653 51.927249 -13.771206 -0.088214 -2.834018 -7.287889 -19.127961 12.454648 -5.165300 7.125000 0.000000 0.000000 5.990300 -13.762500 4.418000 
-0.441979 16.538635 2.013269 -171.609202 -15.033926 154.965218 -5.189037 -4.432877 -3.229657 -8.162824 4.734558 16.394627 2.685803 14.122179 31.946939 -0.649196 -21.071810 -2.931906 0.820900 5.781200 16.150800 9.164685 -0.041605 2.138465 3.191835 2.597870 -64.750964 -5.927181 -7.874462 33.532138 -1.829837 18.745330 -15.663267 -1.266600 7.133500 -20.111600 -6.126374 7.494341 22.774243 -0.133683 3.697639 0.481040 -5.966382 0.030499 15.138172 -8.390549 -4.906691 -8.619981 17.748967 -11.361894 18.708600 5.029900 -5.133900 4.711300 -7.467908 -4.666539 4.150721 -45.248376 -11.083813 21.951575 74.462541 -58.120763 -47.498535 -0.015448 1.214900 32.280264 61.690275 -10.715735 -22.592400 -7.125000 0.000000 0.000000 22.135600 5.758700 -21.515800 8.426298 2.691133 3.903342 76.847516 -22.407006 23.548735 -37.025777 52.239832 -13.961260 -0.076468 -2.886773 -7.603774 -19.060498 12.490987 -5.172100 7.125000 0.000000 0.000000 6.045200 -13.676200 4.470000 
-0.452997 16.532992 1.969734 -171.424976 -15.327243 154.863568 -5.188646 -4.458640 -3.224232 -7.909550 4.840200 16.481472 2.699249 14.158533 32.054857 -0.706348 -21.488891 -2.795674 0.841500 5.851200 16.353300 9.166697 -0.021962 2.140527 2.763116 2.453245 -64.224891 -6.016503 -8.095350 34.195452 -1.951546 17.470654 -16.701875 -1.497400 7.729700 -21.895900 -6.205104 7.394217 22.183251 -0.193567 3.674838 0.432751 -6.213315 0.109159 15.172511 -8.328075 -4.730960 -8.210739 17.925334 -11.293786 18.936957 5.084400 -5.121800 4.665500 -7.488257 -4.746564 4.210232 -45.580261 -10.764169 20.811259 70.399195 -57.728549 -44.172690 -0.014986 1.211836 33.084266 61.892147 -11.022239 -23.226300 -7.125000 0.000000 0.000000 22.162400 5.136200 -21.829100 8.398761 2.749147 3.827222 77.819411 -23.905134 23.115986 -37.313474 52.467788 -14.066522 -0.071484 -2.929422 -7.786564 -18.914472 12.555703 -5.160500 7.125000 0.000000 0.000000 6.153400 -13.581100 4.563300 
-0.465806 16.523676 1.925124 -171.231871 -15.523324 154.676175 -5.181104 -4.485611 -3.220491 -7.670234 4.958540 16.679520 2.714627 14.201369 32.180237 -0.745717 -21.826737 -2.833288 0.831300 5.816700 16.253600 9.129098 0.001323 2.128300 2.456968 2.395229 -63.496104 -6.144728 -8.371140 35.059613 -1.946636 16.326434 -17.002930 -1.654700 8.106400 -23.037700 -6.181181 7.331655 21.691610 -0.254471 3.684261 0.393492 -6.507608 0.207749 15.211004 -8.210581 -4.550804 -7.846155 18.081197 -11.202022 19.125040 5.121500 -5.094800 4.611300 -7.505422 -4.814499 4.273663 -46.001358 -10.497540 19.657731 66.434009 -57.172069 -40.951217 -0.014944 1.213762 33.828897 61.934381 -11.375294 -23.791800 -7.125000 0.000000 0.000000 22.092200 4.538100 -22.015200 8.373609 2.811787 3.752738 78.700164 -25.315130 22.801851 -37.415829 52.591843 -14.070685 -0.075049 -2.965452 -7.887707 -18.858356 12.691834 -5.195200 7.125000 0.000000 0.000000 6.205700 -13.408300 4.625300 
-0.479691 16.507373 1.878275 -171.064174 -15.625238 154.405963 -5.171007 -4.513553 -3.218275 -7.469476 5.088640 16.995915 2.736188 14.257103 32.343048 -0.771388 -22.098842 -2.950931 0.845300 5.864100 16.390600 9.065041 0.038708 2.108669 2.413186 2.216527 -62.653871 -6.305945 -8.703014 36.085307 -1.801386 15.642418 -16.384301 -1.765800 8.360200 -23.813400 -6.124818 7.307577 21.312433 -0.313827 3.721115 0.360647 -6.800062 0.308162 15.232635 -8.033479 -4.389226 -7.577316 18.163540 -11.107507 19.356954 5.117900 -5.057000 4.587700 -7.517595 -4.868058 4.335215 -46.450521 -10.206767 18.567374 62.963980 -56.530885 -38.159587 -0.013702 1.221288 34.326521 61.587030 -11.718452 -23.976300 -7.125000 0.000000 0.000000 21.819200 4.224300 -21.832700 8.353592 2.886018 3.679548 79.440504 -26.646591 22.657658 -37.259486 52.566862 -13.934080 -0.085429 -2.989231 -7.857086 -18.878152 12.856144 -5.258400 7.125000 0.000000 0.000000 6.206800 -13.209800 4.652200 
-0.494740 16.483813 1.831246 -170.989773 -15.703615 154.042725 -5.158096 -4.537999 -3.216740 -7.429939 5.195734 17.451367 2.765026 14.318861 32.531596 -0.771245 -22.255841 -3.221138 0.833200 5.823300 16.272500 8.988637 0.086526 2.079482 2.359255 2.001124 -61.652820 -6.493193 -9.084883 37.252723 -1.642246 15.442498 -15.615864 -1.940700 8.741500 -24.990100 -6.074637 7.334715 21.109087 -0.377545 3.778310 0.337333 -7.104975 0.403174 15.223011 -7.841289 -4.269943 -7.444654 18.195084 -11.050249 19.662358 5.088500 -5.025900 4.626900 -7.529825 -4.912350 4.391092 -46.884548 -9.933651 17.519945 59.822384 -55.826159 -35.652835 -0.010441 1.228550 35.025964 61.254508 -11.875988 -23.886900 -7.125000 0.000000 0.000000 21.610600 4.214200 -21.592500 8.334391 2.972462 3.606050 80.075064 -27.896176 22.673468 -36.935634 52.438930 -13.703075 -0.091984 -3.006207 -7.779530 -18.920199 12.928989 -5.299300 7.125000 0.000000 0.000000 6.184900 -13.110000 4.648600 
-0.511402 16.452819 1.785740 -171.005143 -15.726675 153.606582 -5.146793 -4.558052 -3.210809 -7.555452 5.257392 18.029654 2.800942 14.383222 32.738124 -0.741154 -22.260163 -3.622883 0.831900 5.818600 16.259000 8.907626 0.134485 2.047003 2.220233 1.851612 -60.595229 -6.696703 -9.486646 38.505487 -1.458978 15.791577 -14.554727 -1.990200 8.845700 -25.313900 -6.001840 7.418324 21.150790 -0.445617 3.873448 0.295561 -7.424059 0.516546 15.022577 -7.669276 -4.178247 -7.290585 18.208251 -11.022830 19.959614 5.062900 -5.012100 4.681600 -7.530277 -4.969258 4.443993 -47.390815 -9.556246 16.587930 57.071237 -55.104921 -33.472533 -0.004516 1.236748 35.951674 61.010381 -11.862787 -23.629800 -7.125000 0.000000 0.000000 21.499300 4.420500 -21.373900 8.300495 3.087202 3.528393 80.648768 -29.136226 22.778703 -36.390449 52.169693 -13.356402 -0.098153 -3.019321 -7.677039 -19.056878 12.962949 -5.357100 7.125000 0.000000 0.000000 6.096600 -13.041900 4.590200 
-0.529317 16.423527 1.744087 -170.983174 -15.648953 153.147236 -5.136617 -4.580104 -3.204002 -7.671672 5.296885 18.655763 2.831447 14.439746 32.917828 -0.686109 -22.121646 -4.137202 0.802000 5.715600 15.961400 8.816481 0.178295 2.008434 2.136630 1.810471 -59.596981 -6.916707 -9.883753 39.790365 -1.260263 16.501382 -13.267553 -1.846800 8.539400 -24.364700 -5.801022 7.524880 21.283499 -0.512329 3.994499 0.249651 -7.804123 0.658548 14.783046 -7.466431 -4.111906 -7.235309 18.221079 -11.027373 20.279761 5.030300 -5.006700 4.776700 -7.523009 -5.018293 4.487994 -47.891951 -9.165437 15.717800 54.602244 -54.370617 -31.528210 0.004087 1.245941 36.834689 60.640569 -11.827114 -23.232900 -7.125000 0.000000 0.000000 21.325600 4.739600 -21.036100 8.253720 3.214834 3.453721 81.198497 -30.215813 22.973317 -35.579652 51.734410 -12.869656 -0.104427 -3.028867 -7.450182 -19.249459 12.932450 -5.413000 7.125000 0.000000 0.000000 5.963700 -13.036200 4.489700 
-0.547412 16.401581 1.706285 -170.798056 -15.453868 152.699371 -5.124531 -4.603314 -3.197973 -7.642219 5.258092 19.290182 2.850481 14.485688 33.049366 -0.619627 -21.892574 -4.696043 0.777200 5.628600 15.710500 8.691395 0.214149 1.955016 2.228641 1.958159 -58.619512 -7.146266 -10.248064 41.020057 -1.063400 17.264432 -11.907506 -1.662700 8.124900 -23.094200 -5.427136 7.596743 21.376115 -0.558439 4.106384 0.212935 -8.180420 0.809460 14.634324 -7.270751 -4.078509 -7.369283 18.207144 -11.047972 20.607341 4.985700 -4.996700 4.916900 -7.506195 -5.039952 4.520223 -48.474396 -8.816764 14.806852 52.418601 -53.648084 -29.822688 0.012009 1.257124 37.633186 60.211189 -11.766067 -22.758900 -7.125000 0.000000 0.000000 21.126000 5.127200 -20.642100 8.206357 3.332568 3.386429 81.629296 -31.045096 23.313392 -34.600735 51.180911 -12.300137 -0.107248 -3.028518 -7.122309 -19.397058 12.795989 -5.419500 7.125000 0.000000 0.000000 5.849700 -13.156500 4.388200 
